<svg width="166" height="167" viewBox="0 0 166 167" fill="none" xmlns="http://www.w3.org/2000/svg">
<path d="M133.837 69.8617C131.514 58.0167 125.175 47.3505 115.903 39.6851C106.631 32.0197 95.0012 27.8306 83 27.8334C63.0108 27.8334 45.65 39.245 37.0042 55.945C26.8383 57.0502 17.437 61.8959 10.6066 69.5508C3.7763 77.2058 -0.0011876 87.13 2.80075e-07 97.4167C2.80075e-07 120.449 18.6058 139.167 41.5 139.167H131.417C150.507 139.167 166 123.58 166 104.375C166 86.005 151.821 71.1142 133.837 69.8617ZM131.417 125.25H41.5C26.2142 125.25 13.8333 112.795 13.8333 97.4167C13.8333 83.1521 24.4158 71.2534 38.4567 69.7921L45.8575 69.0267L49.3158 62.4163C52.4973 56.1875 57.3252 50.9625 63.2682 47.3163C69.2112 43.6701 76.039 41.744 83 41.75C101.122 41.75 116.753 54.6925 120.281 72.5755L122.356 83.013L132.938 83.7784C138.138 84.1302 143.012 86.4503 146.58 90.2718C150.147 94.0933 152.143 99.1324 152.167 104.375C152.167 115.856 142.829 125.25 131.417 125.25ZM93.0292 69.5834H72.9708V90.4584H55.3333L83 118.292L110.667 90.4584H93.0292V69.5834Z" fill="#FA4EA9"/>
</svg>
