<svg width="40" height="40" viewBox="0 0 40 40" fill="none" xmlns="http://www.w3.org/2000/svg">
<path fill-rule="evenodd" clip-rule="evenodd" d="M23.85 5C24.3887 5 24.9194 5.13054 25.3966 5.38046C25.8738 5.63037 26.2833 5.99221 26.59 6.435L26.7367 6.66667L36.3584 23.3333C36.6258 23.7965 36.7778 24.3173 36.8016 24.8516C36.8254 25.386 36.7202 25.9182 36.495 26.4033L36.3584 26.6667L32.5084 33.3333C32.2391 33.7996 31.8609 34.1937 31.406 34.482C30.9512 34.7702 30.4333 34.9439 29.8967 34.9883L29.6234 35H10.3784C9.83942 35.0003 9.30843 34.8699 8.83093 34.6199C8.35342 34.37 7.94364 34.008 7.63671 33.565L7.49171 33.3333L3.64171 26.6667C3.37429 26.2035 3.22228 25.6827 3.19849 25.1484C3.1747 24.614 3.27985 24.0818 3.50504 23.5967L3.64171 23.3333L13.2667 6.66667C13.5361 6.20016 13.9146 5.8059 14.3698 5.51767C14.8249 5.22944 15.3431 5.05581 15.88 5.01167L16.1517 5H23.85ZM32.51 26.6667H15.1884L12.3017 31.6667H29.6234L32.51 26.6667ZM15.19 10L6.52837 25L9.41504 30L18.075 15L15.19 10ZM23.85 8.33333H18.0767L26.7367 23.3333H32.51L23.85 8.33333ZM20 18.3333L17.1134 23.3333H22.8867L20 18.3333Z" fill="white"/>
</svg>
