<svg width="40" height="40" viewBox="0 0 40 40" fill="none" xmlns="http://www.w3.org/2000/svg">
<path d="M28.3334 36.6666C26.9445 36.6666 25.7639 36.1805 24.7917 35.2083C23.8195 34.236 23.3334 33.0555 23.3334 31.6666C23.3334 31.4999 23.375 31.111 23.4584 30.4999L11.75 23.6666C11.3056 24.0833 10.7917 24.4099 10.2084 24.6466C9.62504 24.8833 9.00004 25.001 8.33337 24.9999C6.94449 24.9999 5.76393 24.5138 4.79171 23.5416C3.81949 22.5694 3.33337 21.3888 3.33337 19.9999C3.33337 18.611 3.81949 17.4305 4.79171 16.4583C5.76393 15.486 6.94449 14.9999 8.33337 14.9999C9.00004 14.9999 9.62504 15.1183 10.2084 15.3549C10.7917 15.5916 11.3056 15.9177 11.75 16.3333L23.4584 9.49992C23.4028 9.30547 23.3684 9.11825 23.355 8.93825C23.3417 8.75825 23.3345 8.55659 23.3334 8.33325C23.3334 6.94436 23.8195 5.76381 24.7917 4.79159C25.7639 3.81936 26.9445 3.33325 28.3334 3.33325C29.7223 3.33325 30.9028 3.81936 31.875 4.79159C32.8473 5.76381 33.3334 6.94436 33.3334 8.33325C33.3334 9.72214 32.8473 10.9027 31.875 11.8749C30.9028 12.8471 29.7223 13.3333 28.3334 13.3333C27.6667 13.3333 27.0417 13.2149 26.4584 12.9783C25.875 12.7416 25.3612 12.4155 24.9167 11.9999L13.2084 18.8333C13.2639 19.0277 13.2989 19.2155 13.3134 19.3966C13.3278 19.5777 13.3345 19.7788 13.3334 19.9999C13.3323 20.221 13.3256 20.4227 13.3134 20.6049C13.3012 20.7871 13.2662 20.9744 13.2084 21.1666L24.9167 27.9999C25.3612 27.5833 25.875 27.2571 26.4584 27.0216C27.0417 26.786 27.6667 26.6677 28.3334 26.6666C29.7223 26.6666 30.9028 27.1527 31.875 28.1249C32.8473 29.0971 33.3334 30.2777 33.3334 31.6666C33.3334 33.0555 32.8473 34.236 31.875 35.2083C30.9028 36.1805 29.7223 36.6666 28.3334 36.6666Z" fill="white"/>
</svg>
