<svg width="19" height="17" viewBox="0 0 19 17" fill="none" xmlns="http://www.w3.org/2000/svg">
<path d="M18.6869 7.91563L10.6227 0.478125C10.5068 0.373421 10.3627 0.303729 10.2077 0.277356C10.0527 0.250982 9.89319 0.269039 9.74829 0.329375C9.45681 0.456875 9.26249 0.74375 9.26249 1.0625V7.72438L1.4142 0.478125C1.29828 0.373421 1.15422 0.303729 0.999178 0.277356C0.844141 0.250982 0.684668 0.269039 0.539766 0.329375C0.248289 0.456875 0.0539703 0.74375 0.0539703 1.0625V15.9375C0.0539703 16.2563 0.248289 16.5431 0.539766 16.6706C0.64772 16.7131 0.755675 16.7344 0.863629 16.7344C1.06874 16.7344 1.26306 16.66 1.4142 16.5219L9.26249 9.27562V15.9375C9.26249 16.2563 9.45681 16.5431 9.74829 16.6706C9.85624 16.7131 9.9642 16.7344 10.0722 16.7344C10.2773 16.7344 10.4716 16.66 10.6227 16.5219L18.6869 9.08438C18.8489 8.93563 18.946 8.72312 18.946 8.5C18.946 8.27688 18.8489 8.06437 18.6869 7.91563ZM1.67329 14.0994V2.90063L7.74033 8.5L1.67329 14.0994ZM10.8818 14.0994V2.90063L16.9489 8.5L10.8818 14.0994Z" fill="white"/>
</svg>
