<svg width="22" height="22" viewBox="0 0 22 22" fill="none" xmlns="http://www.w3.org/2000/svg">
<path d="M18.4039 1.48077H3.59616C2.42786 1.48077 1.48077 2.42786 1.48077 3.59615V18.4038C1.48077 19.5721 2.42786 20.5192 3.59616 20.5192H18.4039C19.5721 20.5192 20.5192 19.5721 20.5192 18.4038V3.59615C20.5192 2.42786 19.5721 1.48077 18.4039 1.48077Z" stroke="white" stroke-width="2" stroke-linecap="round" stroke-linejoin="round"/>
<path d="M7.82693 9.94231C8.99523 9.94231 9.94232 8.99522 9.94232 7.82692C9.94232 6.65863 8.99523 5.71154 7.82693 5.71154C6.65864 5.71154 5.71155 6.65863 5.71155 7.82692C5.71155 8.99522 6.65864 9.94231 7.82693 9.94231Z" stroke="white" stroke-width="2" stroke-linecap="round" stroke-linejoin="round"/>
<path d="M20.5192 14.1731L17.2552 10.909C16.8585 10.5125 16.3205 10.2897 15.7596 10.2897C15.1987 10.2897 14.6607 10.5125 14.264 10.909L4.65384 20.5192" stroke="white" stroke-width="2" stroke-linecap="round" stroke-linejoin="round"/>
</svg>
