<svg width="100" height="100" viewBox="0 0 100 100" fill="none" xmlns="http://www.w3.org/2000/svg">
<path d="M72.825 37.5H72.9166C77.8894 37.5 82.6586 39.4754 86.1749 42.9917C89.6912 46.5081 91.6666 51.2772 91.6666 56.25C91.6666 61.2228 89.6912 65.9919 86.1749 69.5082C82.6586 73.0246 77.8894 75 72.9166 75H29.1666C23.8139 75.001 18.6661 72.9418 14.791 69.2492C10.9158 65.5567 8.61054 60.5143 8.35331 55.1678C8.09609 49.8213 9.90662 44.5809 13.4094 40.5334C16.9122 36.4859 21.8385 33.942 27.1666 33.4292M72.825 37.5C72.8833 36.8139 72.9138 36.1194 72.9166 35.4167C72.9257 29.5049 70.6499 23.8183 66.5646 19.5452C62.4794 15.272 56.9008 12.7429 50.9946 12.4863C45.0884 12.2298 39.3115 14.2655 34.8711 18.1683C30.4307 22.0711 27.6702 27.5389 27.1666 33.4292M72.825 37.5C72.4055 42.0893 70.6122 46.4455 67.6791 50M27.1666 33.4292C27.825 33.3653 28.4916 33.3333 29.1666 33.3333C33.8583 33.3333 38.1875 34.8833 41.6666 37.5M25 87.5H33.3333M45.8333 87.5H54.1666M66.6666 87.5H74.9999" stroke="#0082C8" stroke-width="6.25" stroke-linecap="round" stroke-linejoin="round"/>
</svg>
