<svg width="80" height="70" viewBox="0 0 80 70" fill="none" xmlns="http://www.w3.org/2000/svg">
<path d="M59.6112 15.1126C56.125 5.86008 48.6301 0 37.3088 0C22.9038 0 12.8251 10.6962 11.9589 24.6513C5.01382 26.8725 0.000152588 33.9575 0.000152588 41.9825C0.000152588 51.8063 7.72265 60.105 16.8613 60.105H24.0838C25.4638 60.105 26.5838 58.985 26.5838 57.605C26.5838 56.2238 25.4638 55.105 24.0838 55.105H16.8613C10.4313 55.105 4.92132 49.0963 4.92132 41.9825C4.92132 35.6963 9.32882 30.025 14.8576 29.075L17.1263 28.6838L16.9251 26.3925L16.9063 26.3638C16.9063 14.1863 24.9201 5.00125 37.3088 5.00125C47.2388 5.00125 52.8176 9.89375 55.3976 18.2388L55.9326 19.96L57.7338 19.9988C67.0213 20.1938 75.1638 27.7288 75.1638 37.0902C75.1638 45.6101 69.5175 55.1051 60.9688 55.1051H55.2563C53.8763 55.1051 52.7563 56.2251 52.7563 57.6051C52.7563 58.9863 53.8763 60.1051 55.2563 60.1051L60.9501 60.0977C73.4501 59.7677 79.9613 47.8265 79.9613 37.0902C79.9613 25.5502 70.9176 16.329 59.6113 15.1127L59.6112 15.1126ZM41.8738 35.0323C41.8601 35.0173 41.855 35.0048 41.8462 34.9923L41.2137 34.3311C40.8675 33.9648 40.4062 33.7836 39.945 33.7861C39.4837 33.7823 39.0249 33.9648 38.6724 34.331L38.04 34.9923C38.0275 35.0048 38.0249 35.0198 38.0137 35.0323L28.99 45.0123C28.2912 45.7424 28.2912 46.9236 28.99 47.6561L29.62 48.0835C30.3188 48.8135 31.4512 48.5773 32.1487 47.8473L37.4701 41.9148V67.1049C37.4701 68.4848 38.5901 69.6049 39.9701 69.6049C41.3501 69.6049 42.4701 68.4848 42.4701 67.1049V41.9385L47.9676 48.0034C48.6663 48.7334 49.7963 48.9698 50.4938 48.2398L51.1238 47.8123C51.8226 47.0798 51.8226 45.8985 51.1238 45.1685L41.8738 35.0323Z" fill="#666666"/>
</svg>
