<svg width="100" height="100" viewBox="0 0 100 100" fill="none" xmlns="http://www.w3.org/2000/svg">
<path d="M43.0209 58.8542L37.1875 53.0208C36.3542 52.1875 35.382 51.7708 34.2709 51.7708C33.1597 51.7708 32.1875 52.1875 31.3542 53.0208C30.5209 53.8542 30.1042 54.8444 30.1042 55.9917C30.1042 57.1389 30.5209 58.1278 31.3542 58.9583L40.2084 67.9167C41.0417 68.75 42.0139 69.1667 43.125 69.1667C44.2361 69.1667 45.2084 68.75 46.0417 67.9167L63.6459 50.3125C64.4792 49.4792 64.8959 48.4722 64.8959 47.2917C64.8959 46.1111 64.4792 45.1042 63.6459 44.2708C62.8125 43.4375 61.8056 43.0208 60.625 43.0208C59.4445 43.0208 58.4375 43.4375 57.6042 44.2708L43.0209 58.8542ZM27.0834 83.3333C20.7639 83.3333 15.3653 81.1458 10.8875 76.7708C6.40974 72.3958 4.16946 67.0486 4.16669 60.7292C4.16669 55.3125 5.79863 50.4861 9.06252 46.25C12.3264 42.0139 16.5972 39.3056 21.875 38.125C23.6111 31.7361 27.0834 26.5625 32.2917 22.6042C37.5 18.6458 43.4028 16.6667 50 16.6667C58.125 16.6667 65.0181 19.4972 70.6792 25.1583C76.3403 30.8194 79.1695 37.7111 79.1667 45.8333C83.9584 46.3889 87.9347 48.4556 91.0959 52.0333C94.257 55.6111 95.8361 59.7944 95.8334 64.5833C95.8334 69.7917 94.0111 74.2194 90.3667 77.8667C86.7222 81.5139 82.2945 83.3361 77.0834 83.3333H27.0834ZM27.0834 75H77.0834C80 75 82.4653 73.9931 84.4792 71.9792C86.4931 69.9653 87.5 67.5 87.5 64.5833C87.5 61.6667 86.4931 59.2014 84.4792 57.1875C82.4653 55.1736 80 54.1667 77.0834 54.1667H70.8334V45.8333C70.8334 40.0694 68.8014 35.1556 64.7375 31.0917C60.6736 27.0278 55.7611 24.9972 50 25C44.2389 25.0028 39.3264 27.0347 35.2625 31.0958C31.1986 35.1569 29.1667 40.0694 29.1667 45.8333H27.0834C23.0556 45.8333 19.6181 47.2569 16.7709 50.1042C13.9236 52.9514 12.5 56.3889 12.5 60.4167C12.5 64.4444 13.9236 67.882 16.7709 70.7292C19.6181 73.5764 23.0556 75 27.0834 75Z" fill="#8ACF00"/>
</svg>
