<svg width="100" height="100" viewBox="0 0 100 100" fill="none" xmlns="http://www.w3.org/2000/svg">
<path fill-rule="evenodd" clip-rule="evenodd" d="M15.5 84.375C14.6712 84.375 13.8763 84.0458 13.2903 83.4597C12.7042 82.8737 12.375 82.0788 12.375 81.25V18.75C12.375 17.9212 12.7042 17.1263 13.2903 16.5403C13.8763 15.9542 14.6712 15.625 15.5 15.625H73.3125C74.5557 15.625 75.748 15.1311 76.6271 14.2521C77.5061 13.373 78 12.1807 78 10.9375C78 9.6943 77.5061 8.50201 76.6271 7.62294C75.748 6.74386 74.5557 6.25 73.3125 6.25H15.5C12.1848 6.25 9.00537 7.56696 6.66117 9.91117C4.31696 12.2554 3 15.4348 3 18.75V81.25C3 84.5652 4.31696 87.7446 6.66117 90.0888C9.00537 92.433 12.1848 93.75 15.5 93.75H78C81.3152 93.75 84.4946 92.433 86.8388 90.0888C89.183 87.7446 90.5 84.5652 90.5 81.25V60.9375C90.5 59.6943 90.0061 58.502 89.1271 57.6229C88.248 56.7439 87.0557 56.25 85.8125 56.25C84.5693 56.25 83.377 56.7439 82.4979 57.6229C81.6189 58.502 81.125 59.6943 81.125 60.9375V81.25C81.125 82.0788 80.7958 82.8737 80.2097 83.4597C79.6237 84.0458 78.8288 84.375 78 84.375H15.5ZM95.375 29.25C96.203 28.3614 96.6538 27.1861 96.6323 25.9717C96.6109 24.7574 96.119 23.5987 95.2601 22.7399C94.4013 21.881 93.2426 21.3891 92.0283 21.3677C90.8139 21.3462 89.6386 21.797 88.75 22.625L54.0125 57.3563L42.3063 45.2563C41.8792 44.81 41.368 44.4525 40.8023 44.2044C40.2366 43.9563 39.6275 43.8225 39.0098 43.8106C38.3922 43.7987 37.7784 43.909 37.2035 44.1352C36.6287 44.3614 36.1042 44.6989 35.6603 45.1284C35.2163 45.558 34.8617 46.071 34.6167 46.6381C34.3717 47.2051 34.2412 47.815 34.2327 48.4327C34.2242 49.0504 34.3378 49.6636 34.5671 50.2372C34.7964 50.8108 35.1368 51.3334 35.5687 51.775L50.5875 67.3C51.0196 67.7482 51.5367 68.1058 52.1086 68.352C52.6804 68.5981 53.2956 68.7279 53.9181 68.7337C54.5407 68.7395 55.1582 68.6213 55.7345 68.3859C56.3109 68.1504 56.8346 67.8025 57.275 67.3625L95.375 29.25Z" fill="#8ACF00"/>
</svg>
