<svg width="23" height="15" viewBox="0 0 23 15" fill="none" xmlns="http://www.w3.org/2000/svg">
<path d="M4.03606 0.208333C3.08293 0.208333 2.16885 0.56501 1.49489 1.1999C0.820933 1.83479 0.442307 2.69588 0.442307 3.59375V11.4062C0.442307 12.3041 0.820933 13.1652 1.49489 13.8001C2.16885 14.435 3.08293 14.7917 4.03606 14.7917H12.3293C13.2824 14.7917 14.1965 14.435 14.8705 13.8001C15.5444 13.1652 15.9231 12.3041 15.9231 11.4062V11.0812L19.5257 13.425C20.8084 14.2583 22.5599 13.3937 22.5599 11.925V3.07396C22.5599 1.60521 20.8084 0.738542 19.5257 1.57396L15.9231 3.91875V3.59375C15.9231 2.69588 15.5444 1.83479 14.8705 1.1999C14.1965 0.56501 13.2824 0.208333 12.3293 0.208333H4.03606ZM15.9231 5.81667L20.4678 2.86042C20.5093 2.83343 20.5579 2.81766 20.6082 2.8148C20.6585 2.81195 20.7088 2.82212 20.7534 2.84422C20.798 2.86633 20.8354 2.89951 20.8615 2.94019C20.8875 2.98087 20.9013 3.02749 20.9012 3.075V11.924C20.9013 11.9715 20.8875 12.0181 20.8615 12.0588C20.8354 12.0994 20.798 12.1326 20.7534 12.1547C20.7088 12.1768 20.6585 12.187 20.6082 12.1842C20.5579 12.1813 20.5093 12.1655 20.4678 12.1385L15.9231 9.18229V5.81667ZM2.10096 3.59375C2.10096 2.5875 2.96788 1.77083 4.03606 1.77083H12.3293C13.3975 1.77083 14.2644 2.5875 14.2644 3.59375V11.4062C14.2644 11.8897 14.0605 12.3534 13.6976 12.6952C13.3347 13.0371 12.8425 13.2292 12.3293 13.2292H4.03606C3.52284 13.2292 3.03064 13.0371 2.66774 12.6952C2.30484 12.3534 2.10096 11.8897 2.10096 11.4062V3.59375Z" fill="white"/>
</svg>
