<svg width="114" height="58" viewBox="0 0 114 58" fill="none" xmlns="http://www.w3.org/2000/svg">
<path d="M22.8067 4.74419L4.29579 11.5182C3.20481 11.9175 2.31711 12.7337 1.82798 13.7875C1.33885 14.8412 1.28835 16.0461 1.68759 17.1371L13.7303 50.0454C14.1296 51.1364 14.9458 52.0241 15.9996 52.5132C17.0533 53.0024 18.2582 53.0529 19.3492 52.6536L44.0304 43.6216C45.1214 43.2223 46.0091 42.406 46.4982 41.3523C46.9874 40.2986 47.0379 39.0937 46.6386 38.0027L36.8539 11.2647L22.8067 4.74419Z" fill="white" stroke="#666666" stroke-width="2" stroke-linecap="round" stroke-linejoin="round"/>
<path d="M20.7499 5.49689L23.7606 13.724C24.1598 14.8149 24.9761 15.7026 26.0299 16.1918C27.0836 16.6809 28.2885 16.7314 29.3795 16.3322L37.6065 13.3215" fill="white"/>
<path d="M20.7499 5.49689L23.7606 13.724C24.1598 14.8149 24.9761 15.7026 26.0299 16.1918C27.0836 16.6809 28.2885 16.7314 29.3795 16.3322L37.6065 13.3215" stroke="#666666" stroke-width="2" stroke-linecap="round" stroke-linejoin="round"/>
<path d="M61.4141 1.32923H41.7027C40.5409 1.32923 39.4268 1.79073 38.6053 2.6122C37.7839 3.43367 37.3224 4.54782 37.3224 5.70956V40.7522C37.3224 41.9139 37.7839 43.028 38.6053 43.8495C39.4268 44.671 40.5409 45.1325 41.7027 45.1325H67.9846C69.1464 45.1325 70.2605 44.671 71.082 43.8495C71.9035 43.028 72.365 41.9139 72.365 40.7522V12.28L61.4141 1.32923Z" fill="white" stroke="#666666" stroke-width="2" stroke-linecap="round" stroke-linejoin="round"/>
<path d="M59.224 1.32923V10.0899C59.224 11.2516 59.6855 12.3658 60.5069 13.1872C61.3284 14.0087 62.4426 14.4702 63.6043 14.4702H72.3649" fill="white"/>
<path d="M59.224 1.32923V10.0899C59.224 11.2516 59.6855 12.3658 60.5069 13.1872C61.3284 14.0087 62.4426 14.4702 63.6043 14.4702H72.3649" stroke="#666666" stroke-width="2" stroke-linecap="round" stroke-linejoin="round"/>
<path d="M102.83 12.8987L84.319 6.12464C83.2281 5.7254 82.0232 5.7759 80.9694 6.26503C79.9157 6.75416 79.0994 7.64186 78.7002 8.73284L66.6574 41.6411C66.2582 42.7321 66.3087 43.937 66.7978 44.9908C67.287 46.0445 68.1747 46.8608 69.2656 47.26L93.9469 56.2921C95.0378 56.6913 96.2427 56.6408 97.2965 56.1517C98.3502 55.6626 99.1665 54.7749 99.5657 53.6839L109.35 26.9459L102.83 12.8987Z" fill="white" stroke="#666666" stroke-width="2" stroke-linecap="round" stroke-linejoin="round"/>
<path d="M100.773 12.146L97.7625 20.3731C97.3632 21.4641 97.4137 22.669 97.9029 23.7227C98.392 24.7765 99.2797 25.5927 100.371 25.992L108.598 29.0027" fill="white"/>
<path d="M100.773 12.146L97.7625 20.3731C97.3632 21.4641 97.4137 22.669 97.9029 23.7227C98.392 24.7765 99.2797 25.5927 100.371 25.992L108.598 29.0027" stroke="#666666" stroke-width="2" stroke-linecap="round" stroke-linejoin="round"/>
</svg>
